<svg width="18" height="18" viewBox="0 0 18 18" fill="none" xmlns="http://www.w3.org/2000/svg">
<path d="M12.7355 1.44166C13.7281 1.44451 14.6792 1.82521 15.3811 2.50061C16.0829 3.17601 16.4786 4.09122 16.4815 5.04638V12.255C16.4786 13.2102 16.0829 14.1254 15.3811 14.8008C14.6792 15.4762 13.7281 15.8569 12.7355 15.8598H5.24421C4.25161 15.8569 3.30052 15.4762 2.59864 14.8008C1.89676 14.1254 1.50114 13.2102 1.49818 12.255V5.04638C1.50114 4.09122 1.89676 3.17601 2.59864 2.50061C3.30052 1.82521 4.25161 1.44451 5.24421 1.44166H12.7355ZM12.7355 0H5.24421C2.35984 0 0 2.27081 0 5.04638V12.255C0 15.0306 2.35984 17.3014 5.24421 17.3014H12.7355C15.6199 17.3014 17.9797 15.0306 17.9797 12.255V5.04638C17.9797 2.27081 15.6199 0 12.7355 0Z" fill="white"/>
<path d="M13.8593 5.04672C13.637 5.04672 13.4198 4.9833 13.235 4.86448C13.0502 4.74566 12.9062 4.57678 12.8211 4.37919C12.736 4.1816 12.7138 3.96418 12.7572 3.75442C12.8005 3.54466 12.9075 3.35199 13.0647 3.20076C13.2219 3.04953 13.4221 2.94654 13.6401 2.90482C13.858 2.86309 14.084 2.88451 14.2893 2.96635C14.4947 3.0482 14.6702 3.18679 14.7936 3.36462C14.9171 3.54245 14.983 3.75151 14.983 3.96538C14.9833 4.10747 14.9545 4.24822 14.8981 4.37955C14.8418 4.51088 14.759 4.63021 14.6546 4.73068C14.5502 4.83116 14.4262 4.91079 14.2897 4.96503C14.1532 5.01926 14.007 5.04702 13.8593 5.04672ZM8.98992 5.76735C9.58262 5.76735 10.162 5.93648 10.6548 6.25335C11.1476 6.57021 11.5317 7.02058 11.7586 7.54751C11.9854 8.07444 12.0447 8.65425 11.9291 9.21364C11.8135 9.77302 11.528 10.2868 11.1089 10.6901C10.6898 11.0934 10.1559 11.3681 9.57456 11.4793C8.99325 11.5906 8.3907 11.5335 7.84312 11.3152C7.29553 11.097 6.8275 10.7274 6.49822 10.2532C6.16893 9.77893 5.99317 9.2214 5.99317 8.65105C5.99402 7.8865 6.31002 7.1535 6.87184 6.61287C7.43365 6.07225 8.1954 5.76817 8.98992 5.76735ZM8.98992 4.3257C8.10091 4.3257 7.23186 4.57938 6.49268 5.05465C5.75349 5.52993 5.17736 6.20546 4.83715 6.99581C4.49694 7.78617 4.40793 8.65585 4.58137 9.49489C4.7548 10.3339 5.1829 11.1046 5.81153 11.7095C6.44016 12.3145 7.24108 12.7264 8.11301 12.8933C8.98494 13.0602 9.88872 12.9745 10.7101 12.6472C11.5314 12.3198 12.2334 11.7654 12.7273 11.0541C13.2212 10.3428 13.4848 9.50653 13.4848 8.65105C13.4848 7.5039 13.0113 6.40373 12.1683 5.59257C11.3254 4.7814 10.1821 4.3257 8.98992 4.3257Z" fill="white"/>
</svg>
