<svg width="44" height="44" viewBox="0 0 44 44" fill="none" xmlns="http://www.w3.org/2000/svg">
<circle cx="21.7676" cy="21.7676" r="21.7676" fill="#FFC42B"/>
<path d="M18.9047 22.0541C19.6559 23.6054 20.9103 24.8565 22.4635 25.6037C22.578 25.658 22.7048 25.6814 22.8312 25.6718C22.9576 25.6622 23.0793 25.6199 23.1843 25.549L25.4656 24.0251C25.5664 23.9567 25.6828 23.915 25.8041 23.9039C25.9254 23.8927 26.0475 23.9124 26.1591 23.9612L30.4295 25.7953C30.5755 25.8561 30.6974 25.9631 30.7766 26.1C30.8557 26.2368 30.8877 26.3959 30.8675 26.5527C30.7322 27.6091 30.2165 28.5801 29.4171 29.2838C28.6176 29.9875 27.5891 30.3758 26.5241 30.3761C23.2327 30.3761 20.0762 29.0686 17.7489 26.7413C15.4216 24.414 14.1141 21.2575 14.1141 17.9661C14.1144 16.9011 14.5027 15.8726 15.2064 15.0731C15.9101 14.2737 16.8811 13.758 17.9375 13.6227C18.0943 13.6025 18.2534 13.6345 18.3902 13.7136C18.5271 13.7928 18.6341 13.9147 18.6949 14.0607L20.529 18.3403C20.5767 18.4501 20.5966 18.5699 20.5871 18.6893C20.5775 18.8086 20.5388 18.9238 20.4742 19.0246L18.9504 21.3424C18.8825 21.4472 18.8427 21.5677 18.8347 21.6923C18.8267 21.8169 18.8508 21.9415 18.9047 22.0541V22.0541Z" stroke="#0D0D0D" stroke-linecap="round" stroke-linejoin="round"/>
</svg>
